<svg width="35" height="35" viewBox="0 0 35 35" fill="none" xmlns="http://www.w3.org/2000/svg">
<path d="M23.5185 7.24275C25.195 7.62246 26.8094 8.15628 28.3312 8.83031C31.6886 13.9527 33.38 19.6286 32.9279 26.1273C30.7386 27.6408 28.6215 28.6684 26.5188 29.407L23.832 27.0081L23.2629 26.5H22.5H12.5H11.7406L11.1726 27.004L8.46474 29.4068C6.37232 28.6684 4.25693 27.6411 2.06916 26.1289C1.68551 20.4509 2.85119 14.7372 6.67582 8.81896C8.2064 8.14697 9.81077 7.61623 11.4776 7.23904C11.5402 7.37521 11.5978 7.50652 11.648 7.62822L12.245 9.07811L13.7954 8.84437C16.2496 8.47441 18.7453 8.47441 21.1994 8.84437L22.733 9.07556L23.3387 7.64782C23.3918 7.52259 23.4527 7.38563 23.5185 7.24275ZM10.864 6.04793C10.8649 6.04948 10.8658 6.05103 10.8667 6.05258C10.8648 6.04923 10.8628 6.04587 10.8609 6.0425L10.864 6.04793Z" stroke="#7289DA" stroke-width="4"/>
</svg>
