<svg width="35" height="35" viewBox="0 0 35 35" fill="none" xmlns="http://www.w3.org/2000/svg">
<g clip-path="url(#clip0_25_2)">
<mask id="path-1-inside-1_25_2" fill="white">
<path d="M4 12H31V33C31 34.1046 30.1046 35 29 35H6C4.89543 35 4 34.1046 4 33V12Z"/>
</mask>
<path d="M4 12V8H0V12H4ZM31 12H35V8H31V12ZM4 16H31V8H4V16ZM27 12V33H35V12H27ZM29 31H6V39H29V31ZM8 33V12H0V33H8ZM6 31C7.10457 31 8 31.8954 8 33H0C0 36.3137 2.68629 39 6 39V31ZM27 33C27 31.8954 27.8954 31 29 31V39C32.3137 39 35 36.3137 35 33H27Z" fill="black" mask="url(#path-1-inside-1_25_2)"/>
<path d="M18.0447 2.73864L32.167 11.9114C33.002 12.4537 32.6179 13.75 31.6223 13.75H3.37766C2.38206 13.75 1.99801 12.4537 2.83296 11.9114L16.9553 2.73864C17.2866 2.52348 17.7134 2.52348 18.0447 2.73864Z" stroke="black" stroke-width="4" stroke-miterlimit="3.8637"/>
<path d="M10.6 24.7C10.6 21.9386 12.8386 19.7 15.6 19.7H19.4C22.1614 19.7 24.4 21.9386 24.4 24.7H20.4C20.4 24.1477 19.9523 23.7 19.4 23.7H15.6C15.0477 23.7 14.6 24.1477 14.6 24.7H10.6ZM22.4 34.3H12.6H22.4ZM10.6 34.3V24.7C10.6 21.9386 12.8386 19.7 15.6 19.7V23.7C15.0477 23.7 14.6 24.1477 14.6 24.7V34.3H10.6ZM19.4 19.7C22.1614 19.7 24.4 21.9386 24.4 24.7V34.3H20.4V24.7C20.4 24.1477 19.9523 23.7 19.4 23.7V19.7Z" fill="black"/>
</g>
<defs>
<clipPath id="clip0_25_2">
<rect width="35" height="35" fill="white"/>
</clipPath>
</defs>
</svg>
