<svg width="35" height="35" viewBox="0 0 35 35" fill="none" xmlns="http://www.w3.org/2000/svg">
<g clip-path="url(#clip0_28_26)">
<path d="M22 14L14 22M14 22C12.6667 22.8333 9.3 24.1 6.5 22.5C3 20.5 -1.5 18 6 13C12 9 21.5 4.66667 25.5 3C26.8333 2.33333 30.2322 1.23224 32 3C33 4 33 7 33 8.5L30 28C29.5 29.5 28.6 31.7 27 32.5C25.4 33.3 23.3333 32.5 22.5 32L16.5 28C14.6667 26.6667 11.6 23.6 14 22Z" stroke="#229ED9" stroke-width="4"/>
</g>
<defs>
<clipPath id="clip0_28_26">
<rect width="35" height="35" fill="white"/>
</clipPath>
</defs>
</svg>
