<svg width="35" height="35" viewBox="0 0 35 35" fill="none" xmlns="http://www.w3.org/2000/svg">
<g clip-path="url(#clip0_28_20)">
<path d="M2 25.4528V2.07713C10.1003 2.71297 14.2722 7.11177 16.0321 8.96729L16.0427 8.9785L16.0428 8.97865L16.049 8.98516L16.0722 9.00957L16.0961 9.03319L16.6109 9.54044L18.0147 10.9239L19.4186 9.54044L19.9333 9.03319L19.9626 9.00431L19.9907 8.97425C20.0493 8.91146 20.1102 8.846 20.1734 8.7781C22.0147 6.79878 25.7931 2.73704 33 2.08825V25.4602C25.3925 25.991 20.4248 29.4864 17.9849 32.345C15.4031 29.4726 10.1115 25.9576 2 25.4528Z" stroke="black" stroke-width="4"/>
<path d="M18 33V11" stroke="black" stroke-width="4"/>
</g>
<defs>
<clipPath id="clip0_28_20">
<rect width="35" height="35" fill="white"/>
</clipPath>
</defs>
</svg>
